<?xml version="1.0" encoding="utf-8"?>
<svg viewBox="0 0 1071.8692 698.79709" xmlns="http://www.w3.org/2000/svg">
  <path id="path237" style="fill:#000000;fill-opacity:1" d="M 592.303 465.104 C 593.153 465.174 594.873 465.304 595.723 465.374 C 595.753 467.254 594.053 467.834 592.653 468.534 C 592.563 467.674 592.393 465.964 592.303 465.104 Z M 175.983 579.704 C 176.593 578.074 177.313 576.494 178.023 574.924 C 178.833 577.564 179.583 580.224 180.303 582.894 C 180.903 585.164 181.493 587.434 182.093 589.704 C 179.193 589.674 176.293 589.644 173.383 589.614 C 174.233 586.304 174.983 582.974 175.983 579.704 Z M 374.283 572.664 C 378.033 572.984 381.973 572.784 385.513 574.264 C 394.203 578.734 394.543 593.104 386.163 598.074 C 382.523 599.774 378.353 599.544 374.443 599.944 C 374.423 590.854 374.193 581.754 374.283 572.664 Z M 440.913 572.494 C 443.933 572.734 447.143 572.544 449.943 573.914 C 453.773 575.674 453.633 581.954 450.003 583.874 C 447.203 585.294 444.003 585.404 440.963 585.904 C 440.913 581.434 440.943 576.964 440.913 572.494 Z M 310.153 576.144 C 313.563 570.844 322.413 570.514 325.993 575.794 C 329.593 581.024 328.403 587.714 328.353 593.684 C 325.313 596.594 322.143 600.604 317.463 600.264 C 312.423 600.204 310.083 595.044 307.553 591.514 C 307.743 586.354 307.193 580.674 310.153 576.144 Z M 237.463 572.244 C 242.223 573.044 247.723 572.814 251.563 576.214 C 255.293 580.044 255.073 585.764 256.313 590.644 C 251.983 596.204 245.493 599.604 238.553 600.544 C 238.273 599.004 237.993 597.474 237.793 595.924 C 237.083 588.054 237.293 580.134 237.463 572.244 Z M 204.213 572.154 C 208.383 572.874 212.533 573.734 216.673 574.624 C 216.023 578.044 215.243 581.444 214.253 584.794 C 212.873 584.844 211.493 584.904 210.113 584.974 C 208.243 584.984 206.363 584.964 204.493 584.954 C 204.423 580.684 204.323 576.424 204.213 572.154 Z M 395.603 506.554 C 396.853 506.514 398.113 506.494 399.373 506.474 C 399.383 507.764 399.393 509.054 399.403 510.354 C 398.103 510.374 396.793 510.394 395.503 510.414 C 395.523 509.124 395.563 507.834 395.603 506.554 Z M 600.033 489.144 C 605.613 489.124 611.183 489.124 616.763 489.144 C 616.523 492.194 616.363 495.244 616.243 498.304 C 610.993 498.354 605.743 498.314 600.493 498.314 C 600.323 495.254 600.163 492.194 600.033 489.144 Z M 566.713 489.104 C 572.293 489.074 577.873 488.984 583.453 489.024 C 583.303 492.114 583.113 495.204 582.933 498.294 C 577.633 498.414 572.333 498.334 567.033 498.354 C 566.963 495.264 566.863 492.184 566.713 489.104 Z M 410.003 487.144 C 413.713 487.364 417.273 490.384 416.733 494.354 C 416.583 497.884 413.183 499.874 409.963 499.974 C 409.883 495.694 409.893 491.414 410.003 487.144 Z M 496.643 464.704 C 498.993 464.654 501.343 464.704 503.693 464.904 C 503.483 468.744 504.123 474.134 499.323 475.394 C 496.213 472.674 496.763 468.394 496.643 464.704 Z M 191.973 462.344 C 194.643 458.984 197.483 455.764 200.393 452.604 C 200.463 455.854 200.553 459.104 200.643 462.344 C 197.753 462.354 194.863 462.354 191.973 462.344 Z M 389.093 410.894 C 395.723 410.854 402.363 410.894 409.003 410.854 C 409.183 414.454 409.293 418.054 409.223 421.654 C 402.643 421.904 396.063 421.804 389.493 421.894 C 389.213 418.234 389.143 414.564 389.093 410.894 Z M 684.043 410.074 C 690.323 409.714 696.643 410.384 702.913 409.624 C 703.003 413.524 703.153 417.424 703.363 421.324 C 696.693 421.674 690.013 422.004 683.323 421.854 C 683.233 418.034 683.223 414.204 683.323 410.384 L 684.043 410.074 Z M 599.583 405.514 C 600.213 405.524 601.463 405.544 602.093 405.564 C 607.343 406.414 612.663 406.244 617.963 406.184 C 618.053 411.474 618.123 416.784 617.673 422.064 C 611.723 421.974 605.783 422.044 599.843 421.984 C 599.423 420.084 598.993 418.204 598.683 416.304 C 598.703 412.684 599.133 409.094 599.583 405.514 Z M 473.033 405.584 C 479.653 405.494 486.283 405.644 492.903 405.654 C 492.903 411.164 493.313 416.664 493.403 422.174 C 486.563 422.224 479.733 422.234 472.903 422.214 C 472.953 416.664 472.983 411.124 473.033 405.584 Z M 604.503 384.444 C 607.313 384.284 610.113 384.104 612.923 383.944 C 612.963 389.474 612.913 395.004 612.443 400.514 C 610.283 400.684 608.113 400.814 605.953 400.944 C 605.463 395.444 605.213 389.924 604.503 384.444 Z M 556.443 384.114 C 563.453 384.004 570.463 384.034 577.473 384.144 C 577.423 387.704 577.163 391.254 576.803 394.804 C 570.133 395.824 563.363 395.224 556.653 395.284 C 556.543 391.554 556.473 387.834 556.443 384.114 Z M 478.933 383.884 C 481.743 384.004 484.553 384.174 487.373 384.384 C 486.953 389.754 486.963 395.144 486.623 400.514 C 484.233 400.674 481.833 400.824 479.443 400.964 C 479.153 395.274 478.933 389.584 478.933 383.884 Z M 35.433 76.294 C 35.673 54.874 54.963 35.774 76.363 35.614 C 381.053 35.584 685.733 36.024 990.423 35.444 C 1002.363 35.204 1014.743 38.904 1023.383 47.444 C 1031.643 55.424 1036.433 66.884 1036.433 78.364 C 1036.433 259.024 1036.233 439.694 1036.433 620.354 C 1036.633 635.784 1027.013 650.284 1013.683 657.604 C 1009.543 660.184 1004.613 660.964 1000.393 663.364 L 72.803 663.364 C 70.833 662.434 68.793 661.664 66.683 661.114 C 50.333 656.404 37.073 641.464 35.443 624.374 C 35.413 441.694 35.483 258.984 35.433 76.294 M 140.983 223.314 C 141.353 241.744 140.363 260.184 141.463 278.594 C 156.703 278.374 171.943 278.374 187.173 278.354 C 189.063 275.214 191.473 272.414 193.313 269.264 C 194.373 266.214 194.613 262.944 195.863 259.964 C 195.943 263.074 196.143 266.204 195.953 269.324 C 194.313 272.924 191.103 275.614 189.493 279.254 C 189.793 286.764 191.913 294.054 194.843 300.934 C 204.083 310.914 220.433 312.604 232.063 305.934 C 244.493 298.384 247.673 279.064 237.443 268.404 C 237.513 265.894 237.483 263.374 237.243 260.874 C 240.353 257.404 241.973 252.944 244.173 248.894 C 246.913 249.144 249.663 249.324 252.423 249.464 C 265.603 249.864 278.793 249.464 291.973 249.224 C 291.883 238.974 293.073 228.534 290.803 218.434 C 288.193 210.474 280.923 203.624 272.213 203.634 C 235.613 203.314 199.003 203.634 162.403 203.544 C 151.583 203.144 141.203 212.354 140.983 223.314 M 244.503 250.914 C 242.473 255.964 238.923 260.734 239.143 266.404 C 240.923 270.764 244.133 274.334 246.693 278.244 C 261.743 278.044 276.793 277.884 291.853 277.784 C 291.883 268.964 291.893 260.134 291.753 251.314 C 276.003 251.264 260.253 250.974 244.503 250.914 M 140.983 280.434 C 140.943 289.384 140.933 298.334 140.913 307.294 C 160.163 307.844 179.793 305.034 198.673 310.004 C 190.403 302.784 186.253 291.624 186.963 280.754 C 171.633 280.914 156.303 280.394 140.983 280.434 M 244.423 297.354 C 242.463 302.544 238.063 306.144 234.473 310.174 C 242.153 309.274 249.613 306.754 257.393 306.714 C 268.913 306.624 280.443 306.884 291.953 306.374 C 291.863 298.194 291.823 290.024 291.923 281.844 C 277.043 281.824 262.153 282.034 247.293 281.024 C 246.613 286.494 246.353 292.124 244.423 297.354 M 140.603 310.884 C 143.313 317.754 147.873 324.944 155.483 326.904 C 163.223 328.584 171.293 328.074 179.113 327.224 C 190.213 329.224 201.533 327.644 212.733 327.764 C 212.723 322.914 212.873 318.064 212.923 313.224 C 204.633 312.894 196.323 313.064 188.063 312.304 L 189.173 311.544 C 173.003 310.524 156.793 310.824 140.603 310.884 M 220.953 313.254 C 220.963 317.984 221.083 322.724 221.583 327.444 C 238.513 328.274 255.483 327.854 272.423 327.714 C 281.823 327.484 289.153 319.594 291.823 311.074 C 277.393 311.544 262.883 310.104 248.513 311.874 C 239.473 313.954 230.153 313.484 220.953 313.254 M 425.503 378.714 C 426.013 382.064 426.833 385.414 428.663 388.314 C 434.073 381.584 443.333 385.104 450.653 384.474 C 451.043 388.064 451.473 391.654 451.903 395.254 C 447.603 398.864 443.233 402.414 439.193 406.304 C 438.573 409.914 439.023 413.694 438.733 417.364 C 438.653 421.014 439.063 426.054 443.023 427.584 C 443.673 421.684 443.883 415.754 443.843 409.834 C 449.473 405.324 457.823 400.434 456.173 391.934 C 456.343 387.554 456.463 383.174 456.273 378.794 C 446.013 378.994 435.763 378.914 425.503 378.714 M 552.423 378.984 C 552.453 386.004 552.243 393.024 552.853 400.024 C 560.813 400.474 568.793 400.334 576.753 399.954 C 576.883 404.664 576.943 409.394 577.363 414.094 C 575.193 417.984 574.953 422.564 573.823 426.814 C 576.583 427.184 579.363 427.354 582.143 427.344 C 583.653 411.274 582.883 395.114 582.753 379.004 C 572.653 378.224 562.523 378.564 552.423 378.984 M 768.643 378.994 C 768.583 385.384 768.263 391.794 768.753 398.174 C 768.763 400.634 768.753 403.084 768.673 405.544 C 774.613 405.844 780.613 405.434 786.493 406.524 C 786.163 411.454 787.813 416.944 785.403 421.484 C 777.083 423.634 768.813 420.404 760.743 418.784 C 762.203 422.204 765.053 424.954 768.643 426.054 C 775.723 428.344 783.263 426.854 790.553 427.104 C 791.863 419.864 792.343 412.434 791.763 405.104 C 791.723 403.814 791.693 402.534 791.683 401.264 C 785.733 400.524 779.753 400.154 773.773 399.884 C 773.803 394.704 773.843 389.534 773.923 384.364 C 779.453 384.254 784.993 384.454 790.533 384.344 C 791.573 384.474 792.263 384.044 792.603 383.074 L 791.873 383.274 C 791.663 382.384 791.263 380.614 791.063 379.724 C 783.593 379.294 776.093 379.594 768.643 378.994 M 807.913 378.114 C 807.233 385.814 807.193 393.594 807.973 401.294 C 807.813 404.254 807.783 407.214 807.763 410.184 C 813.383 410.024 819.023 409.764 824.643 410.264 C 829.273 415.234 824.013 423.234 829.093 427.904 C 829.433 422.714 829.243 417.514 829.093 412.324 C 829.793 411.564 830.483 410.794 831.163 410.024 C 833.573 407.674 829.403 405.074 829.033 402.514 C 830.393 397.574 830.813 392.334 830.523 387.224 C 830.453 384.794 827.353 384.634 825.763 383.724 C 825.783 390.724 826.513 397.694 826.603 404.694 L 825.943 404.614 C 822.173 408.034 816.803 407.044 812.153 407.364 C 812.453 398.144 812.693 388.914 812.783 379.694 C 812.323 379.854 811.413 380.164 810.953 380.324 C 809.933 379.564 808.933 378.834 807.913 378.114 M 261.703 410.784 C 267.793 410.844 273.893 410.924 279.993 410.844 C 280.673 415.304 279.143 419.894 280.443 424.284 C 280.913 426.254 282.863 427.124 284.533 427.904 C 284.803 422.714 284.823 417.514 284.653 412.314 C 285.923 410.964 287.213 409.634 288.503 408.304 C 286.993 407.064 285.473 405.834 283.943 404.634 C 283.653 397.504 284.773 389.934 282.173 383.154 C 279.453 390.474 281.043 398.374 279.913 405.934 C 275.313 405.884 270.713 406.054 266.113 405.804 C 266.173 397.414 266.203 389.014 266.323 380.614 C 264.863 379.964 263.403 379.294 261.953 378.644 C 261.863 389.364 262.083 400.074 261.703 410.784 M 349.463 379.794 C 349.323 388.364 349.543 396.934 349.113 405.504 C 355.163 405.534 361.223 405.434 367.273 405.484 C 367.343 410.814 367.373 416.144 367.403 421.474 C 358.633 422.544 349.613 421.774 341.373 418.474 C 342.943 422.334 346.173 425.524 350.363 426.334 C 357.163 427.694 364.153 426.654 371.013 426.254 C 372.483 418.004 372.603 409.444 370.803 401.234 C 365.053 401.114 359.313 400.794 353.563 400.964 C 352.743 395.404 352.393 389.774 352.403 384.154 C 358.713 384.004 365.033 383.874 371.333 384.294 C 371.333 382.804 371.333 381.324 371.343 379.844 C 364.053 379.874 356.753 379.894 349.463 379.794 M 384.843 379.554 C 385.453 395.154 383.353 410.794 385.273 426.344 C 394.733 427.124 404.213 426.404 413.683 426.524 C 414.123 419.924 414.023 413.294 414.273 406.684 C 405.943 405.484 397.523 405.904 389.143 405.844 C 389.133 399.064 388.973 392.304 388.963 385.534 C 390.243 383.834 391.513 382.144 392.773 380.444 C 390.133 380.094 387.493 379.804 384.843 379.554 M 474.743 379.784 C 474.823 386.364 474.783 392.954 474.443 399.524 C 472.603 400.324 470.773 401.114 468.933 401.894 C 467.663 408.884 468.333 416.004 468.533 423.054 C 469.653 424.054 470.773 425.064 471.883 426.084 C 479.903 426.184 487.913 426.074 495.933 426.284 C 498.283 418.284 498.263 409.874 497.693 401.624 C 495.643 401.414 493.603 401.214 491.563 401.024 C 491.373 394.074 491.203 387.124 491.503 380.184 C 485.923 379.814 480.333 379.864 474.743 379.784 M 600.853 379.364 C 600.913 385.934 600.963 392.514 600.783 399.094 C 598.823 400.024 596.883 401.004 594.963 402.014 C 594.353 407.494 594.473 413.004 594.303 418.514 C 594.803 421.524 594.803 426.474 598.793 426.884 C 606.823 427.154 615.073 428.244 622.963 426.204 C 624.733 418.394 625.523 410.224 623.623 402.354 L 623.643 401.754 C 621.893 401.364 620.153 400.984 618.403 400.604 C 616.583 393.824 617.213 386.784 617.143 379.854 C 611.703 379.904 606.273 379.744 600.853 379.364 M 636.323 379.054 C 636.603 381.724 636.913 384.384 637.233 387.044 C 644.543 382.814 653.193 384.014 661.243 384.184 C 661.063 387.924 661.543 391.814 660.573 395.454 C 657.453 399.714 652.893 402.574 649.083 406.154 C 649.213 409.214 649.313 412.264 649.473 415.324 C 648.723 419.284 648.753 423.404 649.243 427.404 C 650.863 427.054 652.493 426.714 654.113 426.344 C 653.993 420.594 654.423 414.864 654.313 409.114 C 657.913 405.344 663.613 403.414 665.623 398.254 C 666.613 392.114 665.623 385.864 665.113 379.714 C 655.513 379.834 645.883 380.144 636.323 379.054 M 678.433 378.734 C 678.513 389.994 678.113 401.254 678.783 412.494 C 678.313 416.074 677.573 419.724 678.173 423.344 C 678.563 424.924 679.523 427.054 681.483 426.954 C 690.153 427.534 698.853 427.054 707.543 427.204 C 708.103 421.114 707.943 414.974 707.613 408.874 C 707.033 408.964 705.873 409.144 705.293 409.234 C 706.643 408.864 707.933 408.314 709.253 407.814 C 700.783 405.174 691.843 405.974 683.113 405.834 C 683.193 399.654 683.203 393.464 683.193 387.284 C 683.033 384.494 685.523 382.634 686.853 380.434 C 684.053 379.804 681.243 379.244 678.433 378.734 M 845.623 379.034 C 846.293 380.464 846.993 381.904 847.673 383.354 C 855.403 385.124 863.343 384.014 871.173 383.974 C 871.153 385.834 870.893 387.724 871.183 389.574 C 870.213 393.404 869.863 397.354 868.923 401.194 C 863.413 401.084 857.903 400.794 852.403 400.564 C 852.853 402.144 853.313 403.724 853.793 405.314 C 858.363 405.384 863.193 405.884 867.563 404.184 C 871.463 408.994 871.453 415.484 870.283 421.264 C 862.353 422.594 854.313 421.734 846.343 421.324 C 846.603 423.294 846.913 425.264 847.303 427.214 C 856.343 427.164 865.383 427.204 874.423 427.224 C 876.343 418.764 876.763 409.754 874.223 401.364 L 875.033 401.024 C 875.233 399.104 875.413 397.184 875.583 395.264 C 875.473 390.254 875.483 385.254 875.423 380.244 C 865.553 378.814 855.553 379.094 845.623 379.034 M 887.483 379.024 C 888.123 380.504 888.793 382.004 889.443 383.494 C 897.183 384.944 905.053 384.084 912.873 384.074 C 913.133 388.754 913.353 393.444 913.493 398.124 C 906.123 403.324 896.833 399.314 888.623 400.144 C 888.513 409.154 888.363 418.174 888.583 427.184 C 898.453 427.164 908.323 427.244 918.193 427.144 C 917.533 425.354 916.873 423.564 916.203 421.774 C 908.493 421.864 900.773 421.834 893.063 421.774 C 892.613 416.704 892.943 411.604 892.733 406.524 C 900.593 406.144 908.473 406.504 916.343 406.324 C 916.903 402.654 917.253 398.954 917.493 395.244 C 917.493 390.174 917.313 385.094 916.883 380.044 C 907.113 378.964 897.293 379.084 887.483 379.024 M 131.413 380.154 C 134.293 385.084 140.623 384.034 145.433 384.434 C 145.303 396.894 145.523 409.354 144.953 421.804 C 140.463 421.824 135.963 421.844 131.473 421.894 C 132.373 423.464 133.313 425.004 134.293 426.524 C 143.433 427.204 152.613 426.764 161.773 426.864 C 162.073 420.454 161.913 414.044 161.993 407.634 C 160.613 406.884 159.233 406.144 157.853 405.404 C 157.553 410.884 157.513 416.374 156.953 421.844 C 154.513 421.874 152.063 421.914 149.623 421.954 C 149.463 407.924 149.433 393.894 149.513 379.864 C 143.473 379.884 137.433 379.694 131.413 380.154 M 173.383 380.144 C 174.513 381.334 175.433 382.824 176.873 383.694 C 184.483 384.324 192.153 383.744 199.783 384.194 C 199.713 389.644 199.453 395.084 199.263 400.534 C 191.223 401.614 183.103 401.044 175.023 401.064 C 174.573 409.674 174.173 418.304 174.463 426.924 C 184.263 426.754 194.073 427.074 203.873 426.654 C 203.903 425.114 203.923 423.574 203.933 422.044 C 195.663 421.644 187.373 422.044 179.103 421.784 C 179.073 416.304 178.923 410.834 178.863 405.354 C 186.513 405.404 194.163 405.314 201.813 405.494 C 204.263 397.274 204.363 388.434 202.323 380.124 C 192.683 379.984 183.023 379.574 173.383 380.144 M 214.863 380.704 C 222.583 386.724 232.753 383.094 241.643 383.994 C 241.073 389.674 243.023 396.234 238.813 400.904 C 232.943 400.974 227.073 401.004 221.213 401.314 C 225.653 408.074 234.563 404.714 241.203 405.554 C 241.263 410.974 241.273 416.394 240.993 421.804 C 232.423 421.844 223.853 421.804 215.283 421.864 C 216.073 423.294 216.753 424.824 217.873 426.034 C 219.203 426.894 220.953 426.654 222.483 426.854 C 229.883 427.034 237.293 426.924 244.693 426.614 C 246.643 418.944 245.973 411.014 244.863 403.284 C 245.173 395.694 246.023 388.084 245.513 380.464 C 235.303 379.884 225.023 379.264 214.863 380.704 M 149.503 452.004 C 152.473 451.584 155.403 450.674 158.423 450.724 C 160.673 450.764 162.413 453.144 161.853 455.314 C 160.543 461.864 154.783 465.974 150.523 470.624 C 150.463 471.794 150.403 472.964 150.343 474.144 C 156.113 474.244 161.893 474.204 167.653 473.814 C 164.543 469.854 158.843 471.654 154.503 471.044 C 157.723 467.104 161.933 463.904 164.253 459.294 C 165.573 456.644 166.183 453.164 164.233 450.664 C 160.653 445.874 152.213 446.614 149.503 452.004 M 169.063 451.414 C 173.253 451.804 179.343 448.574 182.033 453.164 C 181.913 457.384 177.193 458.744 174.563 461.204 C 176.833 461.404 179.103 461.594 181.383 461.764 C 181.683 464.784 183.263 469.064 180.093 471.064 C 176.373 472.554 172.443 470.494 168.653 470.274 C 171.993 477.254 183.953 476.124 185.783 468.564 C 186.943 465.144 184.143 462.314 182.513 459.624 C 184.053 456.934 187.063 453.314 184.423 450.344 C 180.413 445.604 172.843 447.174 169.063 451.414 M 187.893 464.904 C 192.083 465.154 196.273 465.274 200.463 465.394 C 200.483 468.294 200.503 471.214 200.513 474.124 C 201.233 474.134 202.663 474.154 203.383 474.164 C 203.633 470.374 203.193 465.624 207.143 463.514 C 206.033 462.904 204.923 462.304 203.823 461.694 C 203.683 456.824 203.723 451.944 203.473 447.084 C 196.733 451.434 191.443 457.744 187.893 464.904 M 132.143 452.794 C 133.683 453.544 135.253 454.244 136.843 454.914 C 137.123 459.574 138.273 464.384 137.003 468.984 C 136.393 471.244 134.183 472.264 132.283 473.234 C 136.803 474.694 141.633 474.564 146.273 473.774 C 144.883 472.134 143.083 470.984 141.023 470.384 C 140.793 462.884 140.923 455.384 140.933 447.884 C 138.023 449.554 135.103 451.194 132.143 452.794 M 493.383 465.744 C 492.523 464.634 491.673 463.524 490.833 462.414 C 488.543 463.124 487.423 465.234 486.023 466.984 C 484.393 467.424 483.773 465.474 482.773 464.604 C 483.313 462.854 480.313 461.824 479.723 463.584 C 478.043 468.244 477.583 474.004 481.043 478.004 C 481.393 475.044 481.603 472.064 481.933 469.094 C 483.103 470.364 484.083 471.784 484.983 473.274 C 486.133 471.814 487.393 470.454 488.793 469.244 C 489.083 472.074 489.313 474.904 489.613 477.734 C 490.723 476.224 491.813 474.684 492.903 473.144 C 495.743 474.904 498.513 478.724 502.253 477.134 C 508.823 474.604 508.543 463.084 501.473 461.484 C 497.983 460.344 495.713 463.844 493.383 465.744 M 509.313 461.174 C 509.593 465.964 510.063 470.744 510.013 475.554 C 510.803 472.754 511.293 469.894 511.733 467.024 C 513.923 470.554 515.663 474.424 518.623 477.414 C 519.133 472.444 518.953 467.444 519.043 462.464 C 518.563 462.654 517.603 463.054 517.123 463.254 C 517.013 465.344 516.913 467.434 516.783 469.524 C 513.763 467.264 511.943 463.834 509.313 461.174 M 520.243 462.414 C 522.033 463.064 524.233 463.714 524.813 465.804 C 525.843 469.244 525.193 472.904 525.243 476.444 C 525.753 476.444 526.793 476.434 527.303 476.434 C 527.443 472.484 526.263 468.044 528.463 464.484 C 529.643 462.544 532.093 463.304 533.963 463.124 C 532.973 467.924 533.113 473.104 534.963 477.684 C 535.323 475.074 535.553 472.444 535.803 469.824 C 537.893 469.734 539.983 469.644 542.093 469.564 C 542.133 471.444 541.923 473.374 542.353 475.234 C 543.703 477.114 545.423 478.704 547.033 480.374 C 549.113 474.664 549.833 468.404 553.223 463.224 C 557.373 466.814 557.803 472.514 558.993 477.494 C 560.153 473.984 560.003 470.074 561.743 466.754 C 562.453 465.644 564.223 463.954 565.533 465.124 C 567.003 468.704 566.273 472.704 566.423 476.484 C 569.503 476.334 572.593 476.254 575.673 476.564 C 575.573 476.214 575.383 475.514 575.283 475.174 C 572.103 475.084 567.773 474.554 567.473 470.574 C 570.213 469.824 572.983 469.234 575.773 468.634 C 572.823 467.864 569.293 468.004 567.413 465.184 C 570.273 464.214 573.213 463.494 576.133 462.734 C 571.893 461.884 567.533 461.084 563.223 461.924 C 561.873 463.644 560.523 465.344 559.203 467.084 C 556.963 464.474 554.443 462.044 551.153 460.854 C 549.343 465.974 548.493 471.384 546.653 476.484 C 546.043 476.544 544.823 476.654 544.203 476.714 C 544.113 471.564 544.643 466.244 542.913 461.304 C 542.463 463.464 542.093 465.644 541.723 467.824 C 539.893 467.794 538.073 467.774 536.253 467.764 C 535.883 466.104 535.513 464.464 535.143 462.814 C 530.383 461.194 525.133 461.694 520.243 462.414 M 582.013 461.034 C 581.023 463.294 580.043 465.564 578.683 467.634 C 580.733 467.274 582.783 467.584 584.803 468.004 C 583.923 465.674 583.643 463.014 582.013 461.034 M 589.103 475.974 C 589.743 475.984 591.033 475.994 591.673 476.004 C 591.633 474.064 591.603 472.134 591.583 470.204 C 594.393 472.444 597.093 474.824 600.033 476.914 C 599.033 474.994 597.943 473.124 596.843 471.264 C 597.593 468.334 598.053 465.344 598.003 462.324 C 595.283 462.104 592.573 461.884 589.863 461.634 C 589.273 466.394 589.503 471.204 589.103 475.974 M 576.183 474.284 C 576.563 474.814 576.963 475.354 577.363 475.884 C 578.863 474.374 580.533 473.024 582.273 471.794 C 584.273 473.484 585.933 476.184 588.893 476.044 C 587.773 473.494 586.533 471.014 585.303 468.524 C 583.703 469.514 582.103 470.504 580.493 471.474 C 580.523 470.534 580.563 468.644 580.583 467.704 C 578.353 469.334 577.563 472.024 576.183 474.284 M 365.893 485.234 C 366.343 490.014 367.673 494.674 369.813 498.974 C 370.373 499.804 370.523 501.354 371.833 501.274 C 373.933 496.134 375.833 490.894 377.183 485.504 C 374.423 488.844 372.833 492.894 370.823 496.684 C 369.403 492.774 368.033 488.824 365.893 485.234 M 407.883 485.914 C 407.763 491.084 407.833 496.254 407.863 501.434 C 410.993 501.294 414.353 500.894 416.893 498.884 C 419.413 496.884 419.563 493.084 418.503 490.304 C 416.343 486.634 411.653 486.394 407.883 485.914 M 464.303 485.354 C 464.373 486.524 464.463 487.704 464.553 488.884 C 467.843 488.894 471.123 488.994 474.413 489.154 C 474.253 499.224 474.213 509.304 473.643 519.354 C 470.023 519.344 466.393 519.374 462.793 519.654 C 469.753 525.394 479.033 521.494 487.093 522.084 C 487.083 516.994 487.213 511.894 487.253 506.804 C 486.083 506.844 484.923 506.894 483.763 506.954 C 483.683 510.634 484.643 514.624 482.933 518.064 C 481.853 520.024 479.463 520.284 477.483 520.534 C 477.473 508.814 476.853 497.114 476.993 485.394 C 472.763 485.244 468.523 485.364 464.303 485.354 M 542.833 498.794 C 538.513 506.784 532.113 514.004 530.753 523.274 C 540.133 511.784 548.043 498.924 553.173 484.964 C 548.043 488.074 545.783 493.874 542.833 498.794 M 381.713 486.444 C 379.673 491.274 378.063 496.274 376.543 501.294 C 378.353 499.694 380.123 498.054 381.853 496.374 C 384.453 497.524 387.003 498.794 389.553 500.054 C 387.653 497.384 386.713 494.274 386.383 491.044 C 385.163 492.444 383.993 493.884 382.853 495.354 C 382.053 493.934 381.243 492.524 380.443 491.124 C 382.003 490.354 383.623 489.674 385.113 488.754 C 385.673 487.064 382.703 487.244 381.713 486.444 M 389.713 500.254 C 394.533 500.784 399.373 501.024 404.223 501.114 C 403.573 496.204 403.543 491.234 404.163 486.324 C 403.183 486.324 401.233 486.334 400.263 486.334 C 401.003 490.674 401.633 495.034 402.003 499.434 C 398.663 499.334 395.333 499.114 392.013 498.784 C 392.003 494.364 392.363 489.824 390.833 485.584 C 389.533 490.364 390.033 495.364 389.713 500.254 M 496.043 486.524 C 502.123 491.254 510.043 488.434 517.033 488.844 C 516.943 493.474 516.983 498.114 516.683 502.744 C 510.383 502.484 504.063 501.974 497.793 502.804 C 496.813 509.284 497.393 515.844 497.463 522.364 C 505.213 522.374 512.963 522.224 520.703 521.744 C 514.573 518.064 507.163 520.384 500.453 519.824 C 500.513 515.264 500.613 510.704 500.783 506.144 C 507.003 506.174 513.213 505.914 519.433 505.934 C 520.453 499.604 520.623 493.144 520.293 486.744 C 512.223 486.204 504.113 485.894 496.043 486.524 M 563.953 501.804 C 570.243 501.944 576.533 501.914 582.823 501.924 C 582.753 508.534 581.993 515.114 580.993 521.634 C 582.753 522.774 584.703 523.544 586.773 523.964 C 588.313 511.614 588.243 499.134 587.993 486.714 C 587.473 486.554 586.433 486.224 585.913 486.064 C 578.593 486.234 571.283 486.124 563.973 486.014 C 563.883 491.274 563.923 496.544 563.953 501.804 M 597.273 485.984 C 597.153 491.244 597.233 496.514 597.263 501.774 C 603.623 501.934 609.993 501.804 616.323 502.524 L 616.483 503.094 C 615.513 509.464 615.093 515.914 614.393 522.324 C 616.183 522.874 617.973 523.384 619.793 523.874 C 621.263 511.454 621.383 498.894 621.043 486.414 C 620.543 486.294 619.553 486.054 619.053 485.934 C 611.793 486.184 604.533 485.984 597.273 485.984 M 423.363 497.224 C 423.333 502.054 423.323 506.874 423.343 511.704 C 428.993 509.554 434.683 507.424 440.123 504.784 C 440.163 504.564 440.253 504.124 440.303 503.904 C 434.723 501.514 429.043 499.374 423.363 497.224 M 383.953 510.204 C 386.463 512.274 387.633 515.264 387.723 518.484 C 388.373 518.524 389.683 518.604 390.343 518.644 C 390.333 513.494 390.223 508.344 390.023 503.194 C 387.943 505.484 386.613 508.484 383.953 510.204 M 365.383 505.104 C 366.973 505.534 368.563 505.934 370.173 506.374 C 370.373 510.824 370.463 515.284 371.023 519.724 C 372.913 514.594 370.683 507.894 375.683 504.174 C 372.253 504.554 368.813 504.824 365.383 505.104 M 378.563 518.684 C 379.263 518.644 380.663 518.574 381.363 518.534 C 381.663 516.644 381.973 514.764 382.303 512.894 L 383.373 513.104 C 384.093 509.404 381.883 506.274 380.283 503.164 C 377.923 508.004 378.573 513.484 378.563 518.684 M 392.723 504.144 C 392.803 509.324 392.803 514.534 393.463 519.694 C 394.663 517.784 395.723 515.804 396.713 513.784 C 399.193 515.844 401.683 517.884 404.333 519.724 C 403.253 517.294 402.103 514.894 400.973 512.504 C 401.813 511.134 402.653 509.774 403.483 508.414 C 402.733 507.004 401.983 505.604 401.253 504.194 C 398.413 504.084 395.563 504.084 392.723 504.144 M 414.853 504.734 C 414.813 508.834 414.593 512.924 414.003 516.994 C 412.253 517.204 409.903 517.774 409.033 515.714 C 407.833 512.294 408.763 508.554 408.383 505.014 C 407.783 504.894 406.603 504.654 406.003 504.534 C 406.183 508.834 406.223 513.174 407.073 517.424 C 409.633 518.484 412.503 518.804 415.203 517.994 C 417.803 514.084 416.743 509.134 417.003 504.724 C 416.473 504.724 415.393 504.734 414.853 504.734 M 134.723 572.984 C 131.373 580.394 130.323 589.484 133.803 597.044 C 138.063 606.714 152.823 609.654 159.943 601.484 C 160.863 602.664 161.783 603.854 162.713 605.034 C 164.273 605.244 165.843 605.454 167.403 605.684 C 168.783 602.214 170.223 598.784 171.533 595.294 C 175.713 595.234 179.883 595.484 184.063 595.674 C 185.173 598.574 186.033 601.604 187.643 604.284 C 189.433 605.494 191.853 605.274 193.903 605.814 C 191.443 597.604 188.783 589.434 185.753 581.414 C 184.063 576.924 182.493 572.404 180.913 567.874 C 178.793 567.784 176.683 567.684 174.573 567.584 C 173.593 570.474 172.423 573.314 171.843 576.324 C 168.323 583.904 165.723 591.914 164.093 600.124 C 163.003 600.214 161.913 600.314 160.823 600.424 C 160.713 599.024 160.603 597.614 160.483 596.224 C 156.763 596.614 153.893 599.334 150.323 600.154 C 146.173 601.014 141.723 598.754 139.883 594.954 C 136.813 589.414 138.963 583.004 139.193 577.094 C 141.923 574.874 144.713 571.984 148.473 571.904 C 153.063 571.934 156.773 574.924 160.653 576.974 C 160.153 573.914 160.373 569.224 156.503 568.354 C 149.053 565.074 140.513 567.694 134.723 572.984 M 198.463 567.784 C 198.023 574.154 199.903 580.824 198.233 586.964 C 198.373 586.974 198.663 586.974 198.803 586.974 L 198.453 587.224 C 197.813 592.974 198.323 598.744 198.523 604.504 C 200.243 605.414 202.193 605.384 204.083 605.264 C 204.623 600.894 204.573 596.504 204.553 592.114 L 206.143 591.104 C 205.913 590.964 205.443 590.674 205.213 590.534 C 206.013 590.374 207.613 590.064 208.413 589.904 C 211.893 595.454 216.513 600.154 220.593 605.254 C 223.103 605.274 225.613 605.284 228.123 605.284 C 224.603 599.964 220.363 595.194 215.963 590.594 C 218.443 586.774 221.333 582.924 221.903 578.264 C 222.333 574.024 219.253 570.154 215.373 568.804 C 209.933 566.884 204.083 568.024 198.463 567.784 M 231.573 567.784 C 232.033 575.524 231.713 583.284 232.033 591.024 C 231.823 595.724 231.483 600.434 231.433 605.144 C 238.553 605.444 246.123 605.934 252.703 602.654 C 256.623 600.664 260.623 597.084 260.183 592.254 C 261.553 585.424 261.173 577.174 255.423 572.364 C 248.963 566.464 239.593 567.874 231.573 567.784 M 267.913 567.664 C 268.523 580.344 266.353 593.384 270.083 605.744 C 270.493 601.844 270.253 597.894 270.973 594.034 C 271.433 597.754 271.493 601.514 271.973 605.244 C 272.303 605.014 272.983 604.564 273.313 604.334 C 273.583 598.554 273.203 592.754 273.543 586.964 C 278.743 587.094 283.953 587.054 289.163 587.004 C 289.493 592.654 289.163 598.314 289.433 603.974 C 291.393 603.784 293.363 603.624 295.333 603.484 C 294.693 591.544 295.153 579.584 294.903 567.634 C 292.923 567.684 290.953 567.734 288.993 567.804 C 289.033 572.554 289.013 577.294 289.013 582.044 C 283.853 582.054 278.683 581.904 273.523 581.954 C 273.393 577.214 273.563 572.484 273.343 567.754 C 271.533 567.724 269.723 567.694 267.913 567.664 M 305.613 572.574 C 300.573 579.314 301.453 588.344 302.893 596.134 L 302.623 596.404 C 306.233 602.104 312.423 607.014 319.543 606.234 C 325.073 606.234 329.163 602.084 332.903 598.554 L 332.593 598.214 C 334.563 590.414 335.983 581.474 331.613 574.204 C 326.403 565.234 311.893 564.314 305.613 572.574 M 341.293 567.014 C 341.333 567.594 341.403 568.774 341.433 569.354 C 340.363 581.154 340.783 593.034 340.753 604.864 C 348.353 605.194 355.973 605.274 363.593 605.294 C 363.613 603.334 363.643 601.384 363.683 599.434 C 358.213 599.384 352.743 599.484 347.283 599.434 C 347.063 589.154 347.483 578.864 347.013 568.584 C 345.113 568.024 343.203 567.494 341.293 567.014 M 368.413 567.634 C 368.333 579.974 368.453 592.304 368.433 604.644 C 375.653 604.744 383.573 605.964 390.103 602.094 C 400.673 595.254 400.603 577.414 390.073 570.574 C 383.563 566.654 375.643 567.824 368.413 567.634 M 404.513 567.744 C 405.113 580.114 404.743 592.494 404.913 604.874 C 412.603 604.854 420.303 604.864 428.003 604.884 C 427.963 603.194 427.923 601.504 427.903 599.824 C 422.043 599.444 416.173 599.674 410.313 599.584 C 410.443 595.384 410.473 591.184 410.553 586.994 C 416.043 587.034 421.543 587.134 427.043 587.084 C 426.973 585.414 426.913 583.754 426.853 582.094 C 421.393 582.084 415.953 581.874 410.503 581.904 C 410.423 578.884 410.433 575.884 410.483 572.874 C 416.453 572.874 422.423 572.804 428.393 572.924 C 428.243 571.174 428.083 569.424 427.923 567.684 C 420.123 567.664 412.313 567.704 404.513 567.744 M 434.853 567.624 C 434.923 579.964 434.723 592.314 434.993 604.664 C 436.873 604.764 438.763 604.884 440.653 604.994 C 440.803 599.634 440.833 594.264 441.233 588.924 C 448.503 591.464 451.023 599.574 457.033 603.724 C 459.143 605.314 461.833 605.434 464.383 605.424 C 460.433 599.934 456.083 594.764 451.663 589.664 C 455.243 586.554 458.883 582.474 458.573 577.384 C 458.543 572.834 454.703 569.174 450.453 568.234 C 445.333 567.124 440.043 567.794 434.853 567.624 Z"/>
  <text style="fill: rgb(255, 253, 253); font-family: Arial, sans-serif; font-size: 65px; white-space: pre;" x="655.622" y="134.112">BIV Bank</text>
</svg>